<?xml version="1.0" encoding="UTF-8" standalone="no"?>
<!-- Created with Inkscape (http://www.inkscape.org/) -->

<svg
   xmlns:dc="http://purl.org/dc/elements/1.1/"
   xmlns:cc="http://creativecommons.org/ns#"
   xmlns:rdf="http://www.w3.org/1999/02/22-rdf-syntax-ns#"
   xmlns:svg="http://www.w3.org/2000/svg"
   xmlns="http://www.w3.org/2000/svg"
   xmlns:xlink="http://www.w3.org/1999/xlink"
   xmlns:sodipodi="http://sodipodi.sourceforge.net/DTD/sodipodi-0.dtd"
   xmlns:inkscape="http://www.inkscape.org/namespaces/inkscape"
   width="400"
   height="160"
   id="svg2"
   version="1.1"
   inkscape:version="0.48.2 r9819"
   sodipodi:docname="powered_by_Eiffel_Logo_bw.svg">
  <defs
     id="defs4">
    <linearGradient
       id="linearGradient4035">
      <stop
         id="stop4037"
         offset="0"
         style="stop-color:#ffffff;stop-opacity:0.64516127;" />
      <stop
         id="stop4039"
         offset="1"
         style="stop-color:#ffffff;stop-opacity:1;" />
    </linearGradient>
    <linearGradient
       id="linearGradient4035-7">
      <stop
         id="stop4037-4"
         offset="0"
         style="stop-color:#ffffff;stop-opacity:0.64516127;" />
      <stop
         id="stop4039-0"
         offset="1"
         style="stop-color:#ffffff;stop-opacity:1;" />
    </linearGradient>
    <linearGradient
       inkscape:collect="always"
       xlink:href="#linearGradient4035-7"
       id="linearGradient3206"
       gradientUnits="userSpaceOnUse"
       gradientTransform="translate(-5.3662109e-6,892.36217)"
       x1="375.35715"
       y1="260.13004"
       x2="369.64285"
       y2="207.98718" />
  </defs>
  <sodipodi:namedview
     id="base"
     pagecolor="#ffffff"
     bordercolor="#666666"
     borderopacity="1.0"
     inkscape:pageopacity="0.0"
     inkscape:pageshadow="2"
     inkscape:zoom="1.4"
     inkscape:cx="168.42166"
     inkscape:cy="182.96017"
     inkscape:document-units="px"
     inkscape:current-layer="layer1"
     showgrid="false"
     fit-margin-top="0"
     fit-margin-left="0"
     fit-margin-right="0"
     fit-margin-bottom="0"
     inkscape:window-width="1594"
     inkscape:window-height="1028"
     inkscape:window-x="-8"
     inkscape:window-y="-8"
     inkscape:window-maximized="1" />
  <metadata
     id="metadata7">
    <rdf:RDF>
      <cc:Work
         rdf:about="">
        <dc:format>image/svg+xml</dc:format>
        <dc:type
           rdf:resource="http://purl.org/dc/dcmitype/StillImage" />
        <dc:title />
      </cc:Work>
    </rdf:RDF>
  </metadata>
  <g
     inkscape:label="Layer 1"
     inkscape:groupmode="layer"
     id="layer1"
     transform="translate(0,-892.36218)">
    <rect
       style="fill:none;stroke:none"
       id="rect4327"
       width="400"
       height="160"
       x="0"
       y="892.36218" />
    <rect
       style="fill:none;fill-opacity:0.77777779000000002;fill-rule:nonzero;stroke:#000000;stroke-opacity:1;stroke-width:3;stroke-miterlimit:4;stroke-dasharray:none"
       id="rect4026"
       width="387.60544"
       height="43.057621"
       x="6.6719685"
       y="926.84503" />
    <path
       style="fill:url(#linearGradient3206);fill-opacity:1;fill-rule:nonzero;stroke:none"
       d="m 10.788019,1042.0933 117.688821,0.198 38.19042,-125.9335 -30.39645,-21.58293 -47.153479,10.69246 z"
       id="path4008"
       inkscape:connector-curvature="0" />
    <g
       id="g3036"
       transform="matrix(1.0791107,0,0,1.0791107,-194.77486,705.57022)"
       style="fill:#000000;fill-opacity:1">
      <path
         style="fill:#000000;fill-opacity:1"
         inkscape:connector-curvature="0"
         d="m 330.1,303.8 h 6.4 v -36.2 h -6.4 v -10.3 h 43.8 v 16.8 H 362 v -5.6 H 350.7 V 280 h 16.6 v 11.1 H 350.7 V 303 h 12.2 v -5.6 h 11.9 v 16.8 H 330 v -10.4 z"
         id="path3038" />
      <path
         style="fill:#000000;fill-opacity:1"
         inkscape:connector-curvature="0"
         d="m 381.9,304.2 h 5.2 v -21.1 h -5.6 v -9.9 h 19.3 v 31 h 5.2 v 9.9 h -24.1 v -9.9 z m 5.4,-46.9 h 13.4 V 268 h -13.4 v -10.7 z"
         id="path3040" />
      <path
         style="fill:#000000;fill-opacity:1"
         inkscape:connector-curvature="0"
         d="m 411.6,304.2 h 5.2 v -21.1 h -5.6 v -9.9 h 5.6 v -1.7 c 0,-13.4 11.8,-15.2 18.1,-15.2 2.8,0 4.9,0.3 4.9,0.3 v 10.8 c 0,0 -1,-0.2 -3.3,-0.2 -2,0 -5.9,0.1 -5.9,4 v 2 h 8.4 v 9.9 h -8.4 v 21.1 h 6 v 9.9 h -25 v -9.9 z"
         id="path3042" />
      <path
         style="fill:#000000;fill-opacity:1"
         inkscape:connector-curvature="0"
         d="m 443.5,304.2 h 5.2 v -21.1 h -5.6 v -9.9 h 5.6 v -1.7 c 0,-13.4 11.8,-15.2 18.1,-15.2 2.8,0 4.9,0.3 4.9,0.3 v 10.8 c 0,0 -1,-0.2 -3.3,-0.2 -2,0 -5.9,0.1 -5.9,4 v 2 h 8.4 v 9.9 h -8.4 v 21.1 h 6 v 9.9 h -25 v -9.9 z"
         id="path3044" />
      <path
         style="fill:#000000;fill-opacity:1"
         inkscape:connector-curvature="0"
         d="m 496.3,272.2 c 12.2,0 19.1,8.4 19.1,19.8 0,1.4 -0.3,4.1 -0.3,4.1 h -26 c 1,5.2 5.2,7.6 9.5,7.6 6,0 11.5,-3.9 11.5,-3.9 l 5,9.5 c 0,0 -6.6,5.7 -17.7,5.7 -14.6,0 -22.5,-10.6 -22.5,-21.5 0.1,-11.9 8.2,-21.3 21.4,-21.3 z m 4.8,16.4 c 0,-3.3 -2.1,-6 -5.2,-6 -4,0 -5.9,2.9 -6.6,6 h 11.8 z"
         id="path3046" />
      <path
         style="fill:#000000;fill-opacity:1"
         inkscape:connector-curvature="0"
         d="m 522.7,267.2 h -5.6 v -9.9 h 19.3 v 41 c 0,3.9 0.7,5.2 3.8,5.2 0.9,0 1.7,-0.1 1.7,-0.1 v 10.9 c 0,0 -1.9,0.2 -4.1,0.2 -7.3,0 -15.1,-1.8 -15.1,-15.5 v -31.8 z"
         id="path3048" />
    </g>
    <flowRoot
       xml:space="preserve"
       id="flowRoot3146"
       style="font-size:28px;font-style:normal;font-variant:normal;font-weight:normal;font-stretch:normal;line-height:125%;letter-spacing:0px;word-spacing:0px;fill:#000000;fill-opacity:1;stroke:none;font-family:Verdana;-inkscape-font-specification:Verdana"
       transform="matrix(1.3409405,0,0,1.2864006,-427.37013,679.54129)"><flowRegion
         id="flowRegion3148"><rect
           id="rect3150"
           width="177.85715"
           height="54.285713"
           x="437.14285"
           y="195.21933"
           style="font-size:28px;font-style:normal;font-variant:normal;font-weight:normal;font-stretch:normal;font-family:Verdana;-inkscape-font-specification:Verdana" /></flowRegion><flowPara
         id="flowPara3152"
         style="font-size:25.88725853px;font-style:oblique;font-variant:normal;font-weight:bold;font-stretch:normal;font-family:Verdana;-inkscape-font-specification:Verdana Bold Oblique">Powered by</flowPara></flowRoot>    <g
       id="g2986"
       transform="matrix(2.3424971,0,0,2.3424971,-560.93979,308.7835)">
      <polygon
         points="301.6,266.5 304.5,278 309.2,263.1 "
         id="polygon2988" />
      <path
         inkscape:connector-curvature="0"
         d="m 293,253.5 c -4.3,1 -10.4,2.5 -15.1,3.3 l 3.8,4.5 11.3,-7.8 z"
         id="path2990" />
      <polygon
         points="281.3,293.1 295.7,302.1 292.1,287.9 "
         id="polygon2992" />
      <polygon
         points="282.9,262.8 288.4,269.4 294.6,254.7 "
         id="polygon2994" />
      <polygon
         points="272.8,281.2 285.4,272.2 268,273.8 "
         id="polygon2996" />
      <polygon
         points="285.8,309 295.7,304 281.2,294.9 "
         id="polygon2998" />
      <polygon
         points="271.3,282.3 266.5,274.8 255.6,293.5 "
         id="polygon3000" />
      <polygon
         points="291.6,286.1 288.5,273.9 281.2,291.1 "
         id="polygon3002" />
      <polygon
         points="290.2,273 293.3,285.3 302.5,280.9 "
         id="polygon3004" />
      <polygon
         points="279.4,290.7 286.6,273.6 273.8,282.7 279.2,291 279.4,290.6 "
         id="polygon3006" />
      <polygon
         points="302.9,279.2 299.9,267.2 290.6,271.3 "
         id="polygon3008" />
      <polygon
         points="281.4,263.9 269.8,272 286.8,270.4 "
         id="polygon3010" />
      <polygon
         points="272.3,283.8 256.3,295.3 277.8,292.3 "
         id="polygon3012" />
      <polygon
         points="280.2,262.5 276.4,257.9 269.3,270.1 "
         id="polygon3014" />
      <polygon
         points="301.2,264.7 309,261.2 298.4,253.8 "
         id="polygon3016" />
      <polygon
         points="297.3,301.2 303.1,282.6 293.7,287.1 "
         id="polygon3018" />
      <polygon
         points="290.4,269.4 299.4,265.4 296.7,254.5 "
         id="polygon3020" />
      <polygon
         points="293.5,313.9 295.9,305.9 286.4,310.8 287.4,313.9 "
         id="polygon3022" />
      <polygon
         points="264,313.9 260.1,308.4 252.7,313.9 "
         id="polygon3024" />
      <polygon
         points="260.5,305.8 276.1,294.2 254.4,297.2 "
         id="polygon3026" />
      <polygon
         points="285.5,313.9 284.7,311.6 280.2,313.9 "
         id="polygon3028" />
      <polygon
         points="249.6,313.9 259,306.9 252.9,298.2 243.8,313.9 "
         id="polygon3030" />
      <polygon
         points="269.5,313.9 277.4,295.5 261.6,307.3 266.2,313.9 "
         id="polygon3032" />
      <polygon
         points="276.2,313.9 284.2,309.8 279.4,295.4 271.8,313.9 "
         id="polygon3034" />
    </g>
  </g>
</svg>
