<svg height="160" width="400" xmlns="http://www.w3.org/2000/svg" xmlns:xlink="http://www.w3.org/1999/xlink">
	<linearGradient id="a" gradientUnits="userSpaceOnUse" x1="375.357145" x2="369.642845" y1="1152.49221" y2="1100.34935">
		<stop offset="0" stop-color="#fff" stop-opacity=".645161"/>
		<stop offset="1" stop-color="#fff"/>
	</linearGradient>
	<g transform="translate(0 -892.36218)">
		<path d="m0 892.36218h400v160h-400z" fill="none"/>
		<path d="m6.671969 926.84503h387.60544v43.057621h-387.60544z" fill="none" stroke="#000" stroke-width="3"/>
		<path d="m10.788019 1042.0933 117.688821.198 38.19042-125.9335-30.39645-21.58293-47.153479 10.69246z" fill="url(#a)"/>
		<g transform="matrix(1.0791107 0 0 1.0791107 -194.77486 705.57022)">
			<path d="m330.1 303.8h6.4v-36.2h-6.4v-10.3h43.8v16.8h-11.9v-5.6h-11.3v11.5h16.6v11.1h-16.6v11.9h12.2v-5.6h11.9v16.8h-44.8v-10.4z"/>
			<path d="m381.9 304.2h5.2v-21.1h-5.6v-9.9h19.3v31h5.2v9.9h-24.1zm5.4-46.9h13.4v10.7h-13.4z"/>
			<path d="m411.6 304.2h5.2v-21.1h-5.6v-9.9h5.6v-1.7c0-13.4 11.8-15.2 18.1-15.2 2.8 0 4.9.3 4.9.3v10.8s-1-.2-3.3-.2c-2 0-5.9.1-5.9 4v2h8.4v9.9h-8.4v21.1h6v9.9h-25z"/>
			<path d="m443.5 304.2h5.2v-21.1h-5.6v-9.9h5.6v-1.7c0-13.4 11.8-15.2 18.1-15.2 2.8 0 4.9.3 4.9.3v10.8s-1-.2-3.3-.2c-2 0-5.9.1-5.9 4v2h8.4v9.9h-8.4v21.1h6v9.9h-25z"/>
			<path d="m496.3 272.2c12.2 0 19.1 8.4 19.1 19.8 0 1.4-.3 4.1-.3 4.1h-26c1 5.2 5.2 7.6 9.5 7.6 6 0 11.5-3.9 11.5-3.9l5 9.5s-6.6 5.7-17.7 5.7c-14.6 0-22.5-10.6-22.5-21.5.1-11.9 8.2-21.3 21.4-21.3zm4.8 16.4c0-3.3-2.1-6-5.2-6-4 0-5.9 2.9-6.6 6z"/>
			<path d="m522.7 267.2h-5.6v-9.9h19.3v41c0 3.9.7 5.2 3.8 5.2.9 0 1.7-.1 1.7-.1v10.9s-1.9.2-4.1.2c-7.3 0-15.1-1.8-15.1-15.5z"/>
		</g>
		<g transform="matrix(2.3424971 0 0 2.3424971 -560.93979 308.7835)">
			<path d="m301.6 266.5 2.9 11.5 4.7-14.9z"/>
			<path d="m293 253.5c-4.3 1-10.4 2.5-15.1 3.3l3.8 4.5z"/>
			<path d="m281.3 293.1 14.4 9-3.6-14.2z"/>
			<path d="m282.9 262.8 5.5 6.6 6.2-14.7z"/>
			<path d="m272.8 281.2 12.6-9-17.4 1.6z"/>
			<path d="m285.8 309 9.9-5-14.5-9.1z"/>
			<path d="m271.3 282.3-4.8-7.5-10.9 18.7z"/>
			<path d="m291.6 286.1-3.1-12.2-7.3 17.2z"/>
			<path d="m290.2 273 3.1 12.3 9.2-4.4z"/>
			<path d="m279.4 290.7 7.2-17.1-12.8 9.1 5.4 8.3.2-.4z"/>
			<path d="m302.9 279.2-3-12-9.3 4.1z"/>
			<path d="m281.4 263.9-11.6 8.1 17-1.6z"/>
			<path d="m272.3 283.8-16 11.5 21.5-3z"/>
			<path d="m280.2 262.5-3.8-4.6-7.1 12.2z"/>
			<path d="m301.2 264.7 7.8-3.5-10.6-7.4z"/>
			<path d="m297.3 301.2 5.8-18.6-9.4 4.5z"/>
			<path d="m290.4 269.4 9-4-2.7-10.9z"/>
			<path d="m293.5 313.9 2.4-8-9.5 4.9 1 3.1z"/>
			<path d="m264 313.9-3.9-5.5-7.4 5.5z"/>
			<path d="m260.5 305.8 15.6-11.6-21.7 3z"/>
			<path d="m285.5 313.9-.8-2.3-4.5 2.3z"/>
			<path d="m249.6 313.9 9.4-7-6.1-8.7-9.1 15.7z"/>
			<path d="m269.5 313.9 7.9-18.4-15.8 11.8 4.6 6.6z"/>
			<path d="m276.2 313.9 8-4.1-4.8-14.4-7.6 18.5z"/>
		</g>
	</g>
</svg>
