<svg height="170.66667" width="426.66666" xmlns="http://www.w3.org/2000/svg" xmlns:xlink="http://www.w3.org/1999/xlink">
	<linearGradient id="a" gradientUnits="userSpaceOnUse" x1="400.38096651191" x2="394.2857129881" y1="1229.32503133767" y2="1173.70597893291">
		<stop offset="0" stop-color="#fff" stop-opacity=".645161"/>
		<stop offset="1" stop-color="#fff"/>
	</linearGradient>
	<g transform="translate(0 -951.85299)">
		<path d="m0 951.85297h426.66666v170.66667h-426.66666z" fill="none"/>
		<path d="m7.116767 988.6347h413.4458v45.928127h-413.4458z" fill="#aaa" fill-opacity=".777778"/>
		<path d="m11.50722 1111.5662 125.53474.2112 40.73645-134.32908-32.42288-23.02179-50.297044 11.40529z" fill="url(#a)"/>
		<g fill-opacity=".693122" stroke-width="1.066667" transform="matrix(1.0791107 0 0 1.0791107 -207.75985 752.60823)">
			<path d="m352.10667 324.05333h6.82666v-38.61333h-6.82666v-10.98667h46.72v17.92h-12.69334v-5.97333h-12.05333v12.26667h17.70667v11.84h-17.70667v12.69333h13.01333v-5.97333h12.69334v17.92h-47.78667v-11.09334z"/>
			<path d="m407.36 324.48h5.54667v-22.50667h-5.97334v-10.56h20.58667v33.06667h5.54667v10.56h-25.70667zm5.76-50.02667h14.29333v11.41334h-14.29333z"/>
			<path d="m439.04 324.48h5.54667v-22.50667h-5.97334v-10.56h5.97334v-1.81333c0-14.29333 12.58666-16.21333 19.30666-16.21333 2.98667 0 5.22667.32 5.22667.32v11.52s-1.06667-.21334-3.52-.21334c-2.13333 0-6.29333.10667-6.29333 4.26667v2.13333h8.96v10.56h-8.96v22.50667h6.4v10.56h-26.66667z"/>
			<path d="m473.06667 324.48h5.54666v-22.50667h-5.97333v-10.56h5.97333v-1.81333c0-14.29333 12.58667-16.21333 19.30667-16.21333 2.98667 0 5.22667.32 5.22667.32v11.52s-1.06667-.21334-3.52-.21334c-2.13334 0-6.29334.10667-6.29334 4.26667v2.13333h8.96v10.56h-8.96v22.50667h6.4v10.56h-26.66666z"/>
			<path d="m529.38667 290.34667c13.01333 0 20.37333 8.96 20.37333 21.12 0 1.49333-.32 4.37333-.32 4.37333h-27.73333c1.06666 5.54667 5.54666 8.10667 10.13333 8.10667 6.4 0 12.26667-4.16 12.26667-4.16l5.33333 10.13333s-7.04 6.08-18.88 6.08c-15.57333 0-24-11.30667-24-22.93333.10667-12.69334 8.74667-22.72 22.82667-22.72zm5.12 17.49333c0-3.52-2.24-6.4-5.54667-6.4-4.26667 0-6.29333 3.09333-7.04 6.4z"/>
			<path d="m557.54667 285.01333h-5.97334v-10.56h20.58667v43.73334c0 4.16.74667 5.54666 4.05333 5.54666.96 0 1.81334-.10666 1.81334-.10666v11.62666s-2.02667.21334-4.37334.21334c-7.78666 0-16.10666-1.92-16.10666-16.53334z"/>
		</g>
		<g transform="matrix(2.3424971 0 0 2.3424971 -598.33578 329.36907)">
			<path d="m304.5 278 4.7-14.9-7.6 3.4z" transform="scale(1.0666667)"/>
			<path d="m312.53333 270.4c-4.58666 1.06667-11.09333 2.66667-16.10666 3.52l4.05333 4.8z" stroke-width="1.066667"/>
			<g transform="scale(1.0666667)">
				<path d="m295.7 302.1-3.6-14.2-10.8 5.2z"/>
				<path d="m288.4 269.4 6.2-14.7-11.7 8.1z"/>
				<path d="m285.4 272.2-17.4 1.6 4.8 7.4z"/>
				<path d="m295.7 304-14.5-9.1 4.6 14.1z"/>
				<path d="m266.5 274.8-10.9 18.7 15.7-11.2z"/>
				<path d="m288.5 273.9-7.3 17.2 10.4-5z"/>
				<path d="m293.3 285.3 9.2-4.4-12.3-7.9z"/>
				<path d="m279.4 290.6v.1l7.2-17.1-12.8 9.1 5.4 8.3z"/>
				<path d="m299.9 267.2-9.3 4.1 12.3 7.9z"/>
				<path d="m269.8 272 17-1.6-5.4-6.5z"/>
				<path d="m256.3 295.3 21.5-3-5.5-8.5z"/>
				<path d="m276.4 257.9-7.1 12.2 10.9-7.6z"/>
				<path d="m309 261.2-10.6-7.4 2.8 10.9z"/>
				<path d="m303.1 282.6-9.4 4.5 3.6 14.1z"/>
				<path d="m299.4 265.4-2.7-10.9-6.3 14.9z"/>
				<path d="m293.5 313.9 2.4-8-9.5 4.9 1 3.1z"/>
				<path d="m260.1 308.4-7.4 5.5h11.3z"/>
				<path d="m276.1 294.2-21.7 3 6.1 8.6z"/>
				<path d="m284.7 311.6-4.5 2.3h5.3z"/>
				<path d="m249.6 313.9 9.4-7-6.1-8.7-9.1 15.7z"/>
				<path d="m269.5 313.9 7.9-18.4-15.8 11.8 4.6 6.6z"/>
				<path d="m276.2 313.9 8-4.1-4.8-14.4-7.6 18.5z"/>
			</g>
		</g>
	</g>
</svg>
