<?xml version="1.0" encoding="utf-8"?>
<!-- Generator: Adobe Illustrator 16.0.4, SVG Export Plug-In . SVG Version: 6.00 Build 0)  -->
<!DOCTYPE svg PUBLIC "-//W3C//DTD SVG 1.1//EN" "http://www.w3.org/Graphics/SVG/1.1/DTD/svg11.dtd" [
	<!ENTITY ns_flows "http://ns.adobe.com/Flows/1.0/">
	<!ENTITY ns_extend "http://ns.adobe.com/Extensibility/1.0/">
	<!ENTITY ns_ai "http://ns.adobe.com/AdobeIllustrator/10.0/">
	<!ENTITY ns_graphs "http://ns.adobe.com/Graphs/1.0/">
]>
<svg version="1.1" id="Layer_1" xmlns:x="&ns_extend;" xmlns:i="&ns_ai;" xmlns:graph="&ns_graphs;"
	 xmlns="http://www.w3.org/2000/svg" xmlns:xlink="http://www.w3.org/1999/xlink" xmlns:a="http://ns.adobe.com/AdobeSVGViewerExtensions/3.0/"
	 x="0px" y="0px" width="792px" height="612px" viewBox="0 0 792 612" enable-background="new 0 0 792 612" xml:space="preserve">
<g>
	<polygon points="304.5,278 309.2,263.1 301.6,266.5 	"/>
	<path d="M293,253.5c-4.3,1-10.4,2.5-15.1,3.3l3.8,4.5L293,253.5z"/>
	<polygon points="295.7,302.1 292.1,287.9 281.3,293.1 	"/>
	<polygon points="288.4,269.4 294.6,254.7 282.9,262.8 	"/>
	<polygon points="285.4,272.2 268,273.8 272.8,281.2 	"/>
	<polygon points="295.7,304 281.2,294.9 285.8,309 	"/>
	<polygon points="266.5,274.8 255.6,293.5 271.3,282.3 	"/>
	<polygon points="288.5,273.9 281.2,291.1 291.6,286.1 	"/>
	<polygon points="293.3,285.3 302.5,280.9 290.2,273 	"/>
	<polygon points="279.4,290.6 279.4,290.7 286.6,273.6 273.8,282.7 279.2,291 	"/>
	<polygon points="299.9,267.2 290.6,271.3 302.9,279.2 	"/>
	<polygon points="269.8,272 286.8,270.4 281.4,263.9 	"/>
	<polygon points="256.3,295.3 277.8,292.3 272.3,283.8 	"/>
	<polygon points="276.4,257.9 269.3,270.1 280.2,262.5 	"/>
	<polygon points="309,261.2 298.4,253.8 301.2,264.7 	"/>
	<polygon points="303.1,282.6 293.7,287.1 297.3,301.2 	"/>
	<polygon points="299.4,265.4 296.7,254.5 290.4,269.4 	"/>
	<polygon points="295.9,305.9 286.4,310.8 287.4,313.9 293.5,313.9 	"/>
	<polygon points="260.1,308.4 252.7,313.9 264,313.9 	"/>
	<polygon points="276.1,294.2 254.4,297.2 260.5,305.8 	"/>
	<polygon points="284.7,311.6 280.2,313.9 285.5,313.9 	"/>
	<polygon points="259,306.9 252.9,298.2 243.8,313.9 249.6,313.9 	"/>
	<polygon points="277.4,295.5 261.6,307.3 266.2,313.9 269.5,313.9 	"/>
	<polygon points="284.2,309.8 279.4,295.4 271.8,313.9 276.2,313.9 	"/>
</g>
<g>
	<path fill="#4D6977" d="M330.1,303.8h6.4v-36.2h-6.4v-10.3h43.8v16.8H362v-5.6h-11.3V280h16.6v11.1h-16.6V303h12.2v-5.6h11.9v16.8
		h-44.8V303.8z"/>
	<path fill="#4D6977" d="M381.9,304.2h5.2v-21.1h-5.6v-9.9h19.3v31h5.2v9.9h-24.1V304.2z M387.3,257.3h13.4V268h-13.4V257.3z"/>
	<path fill="#4D6977" d="M411.6,304.2h5.2v-21.1h-5.6v-9.9h5.6v-1.7c0-13.4,11.8-15.2,18.1-15.2c2.8,0,4.9,0.3,4.9,0.3v10.8
		c0,0-1-0.2-3.3-0.2c-2,0-5.9,0.1-5.9,4v2h8.4v9.9h-8.4v21.1h6v9.9h-25V304.2z"/>
	<path fill="#4D6977" d="M443.5,304.2h5.2v-21.1h-5.6v-9.9h5.6v-1.7c0-13.4,11.8-15.2,18.1-15.2c2.8,0,4.9,0.3,4.9,0.3v10.8
		c0,0-1-0.2-3.3-0.2c-2,0-5.9,0.1-5.9,4v2h8.4v9.9h-8.4v21.1h6v9.9h-25V304.2z"/>
	<path fill="#4D6977" d="M496.3,272.2c12.2,0,19.1,8.4,19.1,19.8c0,1.4-0.3,4.1-0.3,4.1h-26c1,5.2,5.2,7.6,9.5,7.6
		c6,0,11.5-3.9,11.5-3.9l5,9.5c0,0-6.6,5.7-17.7,5.7c-14.6,0-22.5-10.6-22.5-21.5C475,281.6,483.1,272.2,496.3,272.2z M501.1,288.6
		c0-3.3-2.1-6-5.2-6c-4,0-5.9,2.9-6.6,6H501.1z"/>
	<path fill="#4D6977" d="M522.7,267.2h-5.6v-9.9h19.3v41c0,3.9,0.7,5.2,3.8,5.2c0.9,0,1.7-0.1,1.7-0.1v10.9c0,0-1.9,0.2-4.1,0.2
		c-7.3,0-15.1-1.8-15.1-15.5V267.2z"/>
</g>
<g>
</g>
<g>
</g>
<g>
</g>
<g>
</g>
<g>
</g>
<g>
</g>
</svg>
