<?xml version="1.0" encoding="UTF-8"?>
<svg version="1.1" viewBox="0 0 298.1 61.5" xmlns="http://www.w3.org/2000/svg">
	<g>
		<polygon points="60.7 24.5 65.4 9.6 57.8 13"/>
		<path d="m49.2 0c-4.3 1-10.4 2.5-15.1 3.3l3.8 4.5z"/>
		<polygon points="51.9 48.6 48.3 34.4 37.5 39.6"/>
		<polygon points="44.6 15.9 50.8 1.2 39.1 9.3"/>
		<polygon points="41.6 18.7 24.2 20.3 29 27.7"/>
		<polygon points="51.9 50.5 37.4 41.4 42 55.5"/>
		<polygon points="22.7 21.3 11.8 40 27.5 28.8"/>
		<polygon points="44.7 20.4 37.4 37.6 47.8 32.6"/>
		<polygon points="49.5 31.8 58.7 27.4 46.4 19.5"/>
		<polygon points="35.4 37.5 35.6 37.1 35.6 37.2 42.8 20.1 30 29.2"/>
		<polygon points="56.1 13.7 46.8 17.8 59.1 25.7"/>
		<polygon points="26 18.5 43 16.9 37.6 10.4"/>
		<polygon points="12.5 41.8 34 38.8 28.5 30.3"/>
		<polygon points="32.6 4.4 25.5 16.6 36.4 9"/>
		<polygon points="65.2 7.7 54.6 0.3 57.4 11.2"/>
		<polygon points="59.3 29.1 49.9 33.6 53.5 47.7"/>
		<polygon points="55.6 11.9 52.9 1 46.6 15.9"/>
		<polygon points="42.6 57.3 43.6 60.4 49.7 60.4 52.1 52.4"/>
		<polygon points="16.3 54.9 8.9 60.4 20.2 60.4"/>
		<polygon points="32.3 40.7 10.6 43.7 16.7 52.3"/>
		<polygon points="40.9 58.1 36.4 60.4 41.7 60.4"/>
		<polygon points="9.1 44.7 0 60.4 5.8 60.4 15.2 53.4"/>
		<polygon points="17.8 53.8 22.4 60.4 25.7 60.4 33.6 42"/>
		<polygon points="35.6 41.9 28 60.4 32.4 60.4 40.4 56.3"/>
	</g>
	<g fill="#4d6977">
		<path d="m86.3 50.3h6.4v-36.2h-6.4v-10.3h43.8v16.8h-11.9v-5.6h-11.3v11.5h16.6v11.1h-16.6v11.9h12.2v-5.6h11.9v16.8h-44.8v-10.4h0.10001z"/>
		<path d="m138.1 50.7h5.2v-21.1h-5.6v-9.9h19.3v31h5.2v9.9h-24.1zm5.4-46.9h13.4v10.7h-13.4z"/>
		<path d="m167.8 50.7h5.2v-21.1h-5.6v-9.9h5.6v-1.7c0-13.4 11.8-15.2 18.1-15.2 2.8 0 4.9 0.29999 4.9 0.29999v10.8s-1-0.20001-3.3-0.20001c-2 0-5.9 0.10001-5.9 4v2h8.4v9.9h-8.4v21.1h6v9.9h-25z"/>
		<path d="m199.7 50.7h5.2v-21.1h-5.6v-9.9h5.6v-1.7c0-13.4 11.8-15.2 18.1-15.2 2.8 0 4.9 0.29999 4.9 0.29999v10.8s-1-0.20001-3.3-0.20001c-2 0-5.9 0.10001-5.9 4v2h8.4v9.9h-8.4v21.1h6v9.9h-25z"/>
		<path d="m252.5 18.7c12.2 0 19.1 8.4 19.1 19.8 0 1.4-0.29999 4.1-0.29999 4.1h-26c1 5.2 5.2 7.6 9.5 7.6 6 0 11.5-3.9 11.5-3.9l5 9.5s-6.6 5.7-17.7 5.7c-14.6 0-22.5-10.6-22.5-21.5 0.10001-11.9 8.2-21.3 21.4-21.3zm4.8 16.4c0-3.3-2.1-6-5.2-6-4 0-5.9 2.9-6.6 6z"/>
		<path d="m278.9 13.7h-5.6v-9.9h19.3v41c0 3.9 0.70001 5.2 3.8 5.2 0.90003 0 1.7-0.09998 1.7-0.09998v10.9s-1.9 0.19998-4.1 0.19998c-7.3 0-15.1-1.8-15.1-15.5z"/>
	</g>
</svg>
