<svg height="400" width="400" xmlns="http://www.w3.org/2000/svg" xmlns:xlink="http://www.w3.org/1999/xlink">
	<linearGradient id="a" gradientUnits="userSpaceOnUse" x1="375.357145" x2="369.642845" y1="1032.49221" y2="980.34935">
		<stop offset="0" stop-color="#fff" stop-opacity=".645161"/>
		<stop offset="1" stop-color="#fff"/></linearGradient>
	<g transform="translate(0 -652.362183)">
		<path d="m0 772.36218h400v160h-400z" fill="none"/>
		<path d="m6.671969 806.84503h387.60544v43.057621h-387.60544z" fill="#0fd330"/>
		<path d="m10.788019 922.0933 117.688821.198 38.19042-125.9335-30.39645-21.58293-47.153479 10.69246z" fill="url(#a)"/>
		<g fill="#4d6977" transform="matrix(1.0791107 0 0 1.0791107 -194.77486 585.57022)">
			<path d="m330.1 303.8h6.4v-36.2h-6.4v-10.3h43.8v16.8h-11.9v-5.6h-11.3v11.5h16.6v11.1h-16.6v11.9h12.2v-5.6h11.9v16.8h-44.8v-10.4z"/>
			<path d="m381.9 304.2h5.2v-21.1h-5.6v-9.9h19.3v31h5.2v9.9h-24.1zm5.4-46.9h13.4v10.7h-13.4z"/>
			<path d="m411.6 304.2h5.2v-21.1h-5.6v-9.9h5.6v-1.7c0-13.4 11.8-15.2 18.1-15.2 2.8 0 4.9.3 4.9.3v10.8s-1-.2-3.3-.2c-2 0-5.9.1-5.9 4v2h8.4v9.9h-8.4v21.1h6v9.9h-25z"/>
			<path d="m443.5 304.2h5.2v-21.1h-5.6v-9.9h5.6v-1.7c0-13.4 11.8-15.2 18.1-15.2 2.8 0 4.9.3 4.9.3v10.8s-1-.2-3.3-.2c-2 0-5.9.1-5.9 4v2h8.4v9.9h-8.4v21.1h6v9.9h-25z"/>
			<path d="m496.3 272.2c12.2 0 19.1 8.4 19.1 19.8 0 1.4-.3 4.1-.3 4.1h-26c1 5.2 5.2 7.6 9.5 7.6 6 0 11.5-3.9 11.5-3.9l5 9.5s-6.6 5.7-17.7 5.7c-14.6 0-22.5-10.6-22.5-21.5.1-11.9 8.2-21.3 21.4-21.3zm4.8 16.4c0-3.3-2.1-6-5.2-6-4 0-5.9 2.9-6.6 6z"/>
			<path d="m522.7 267.2h-5.6v-9.9h19.3v41c0 3.9.7 5.2 3.8 5.2.9 0 1.7-.1 1.7-.1v10.9s-1.9.2-4.1.2c-7.3 0-15.1-1.8-15.1-15.5z"/></g>
		<g transform="matrix(2.3424971 0 0 2.3424971 -560.93979 188.7835)">
			<path d="m304.5 278 4.7-14.9-7.6 3.4z"/>
			<path d="m293 253.5c-4.3 1-10.4 2.5-15.1 3.3l3.8 4.5z"/>
			<path d="m295.7 302.1-3.6-14.2-10.8 5.2z"/>
			<path d="m288.4 269.4 6.2-14.7-11.7 8.1z"/>
			<path d="m285.4 272.2-17.4 1.6 4.8 7.4z"/>
			<path d="m295.7 304-14.5-9.1 4.6 14.1z"/>
			<path d="m266.5 274.8-10.9 18.7 15.7-11.2z"/>
			<path d="m288.5 273.9-7.3 17.2 10.4-5z"/>
			<path d="m293.3 285.3 9.2-4.4-12.3-7.9z"/>
			<path d="m286.6 273.6-12.8 9.1 5.4 8.3.2-.4v.1z"/>
			<path d="m299.9 267.2-9.3 4.1 12.3 7.9z"/>
			<path d="m269.8 272 17-1.6-5.4-6.5z"/>
			<path d="m256.3 295.3 21.5-3-5.5-8.5z"/>
			<path d="m276.4 257.9-7.1 12.2 10.9-7.6z"/>
			<path d="m309 261.2-10.6-7.4 2.8 10.9z"/>
			<path d="m303.1 282.6-9.4 4.5 3.6 14.1z"/>
			<path d="m299.4 265.4-2.7-10.9-6.3 14.9z"/>
			<path d="m293.5 313.9 2.4-8-9.5 4.9 1 3.1z"/>
			<path d="m260.1 308.4-7.4 5.5h11.3z"/>
			<path d="m276.1 294.2-21.7 3 6.1 8.6z"/>
			<path d="m284.7 311.6-4.5 2.3h5.3z"/>
			<path d="m249.6 313.9 9.4-7-6.1-8.7-9.1 15.7z"/>
			<path d="m269.5 313.9 7.9-18.4-15.8 11.8 4.6 6.6z"/>
			<path d="m276.2 313.9 8-4.1-4.8-14.4-7.6 18.5z"/></g>
	</g>
</svg>
